<svg width="1200" height="1200" viewBox="0 0 1200 1200" fill="none" xmlns="http://www.w3.org/2000/svg">
    <g id="678 1">
        <path id="path14" d="M1062.06 967.379H141.473C134.217 967.379 128.28 961.443 128.28 954.185C128.28 946.929 134.217 940.992 141.473 940.992H1062.06C1069.32 940.992 1075.25 946.929 1075.25 954.185C1075.25 961.443 1069.32 967.379 1062.06 967.379Z" fill="#9386AC" />
        <path id="path32" d="M988.753 605.173H873.924C873.924 592.573 884.139 582.36 896.737 582.36H965.94C978.54 582.36 988.753 592.573 988.753 605.173Z" fill="#F8A12B" />
        <path id="path34" d="M918.317 582.931H897.6V576.657H918.317V582.931Z" fill="#192645" />
        <g id="lamp">
            <path id="path16" d="M857.043 418.557C850.505 411.585 851.072 400.827 858.308 394.528L859.127 393.816C866.361 387.517 877.527 388.063 884.064 395.035C890.601 402.005 890.035 412.764 882.8 419.063L881.98 419.775C874.745 426.075 863.58 425.528 857.043 418.557" fill="#192645" />
            <path id="path18" d="M870.927 452.391L853.732 467.36L804.905 415.288L822.101 400.32C834.015 389.948 851.104 388.569 864.367 395.768C867.717 397.58 870.816 399.933 873.535 402.832C880.271 410.016 883.352 419.155 882.892 428.132C882.407 437.109 878.381 445.901 870.927 452.391" fill="#F14E30" />
            <path id="path20" d="M855.391 435.823L838.196 450.792L804.905 415.288L822.101 400.32C834.015 389.948 851.104 388.569 864.367 395.768C866.645 400.791 867.639 406.203 867.356 411.564C866.872 420.541 862.847 429.333 855.391 435.823Z" fill="#F8A12B" />
            <path id="path22" d="M854.621 467.16C849.435 471.792 834.105 464.053 820.383 449.844C806.66 435.635 799.723 420.356 804.919 415.709C809.009 412.037 819.455 416.111 830.44 425.001C833.332 427.364 836.283 430.049 839.143 433.017C842.489 436.487 845.439 440.016 847.899 443.443C855.54 454.049 858.541 463.652 854.621 467.16" fill="#2F3564" />
            <path id="path24" d="M847.899 443.443C843.925 447.82 837.167 449.069 831.691 446.088C825.435 442.684 823.221 435.012 826.763 428.972C827.707 427.361 828.971 426.016 830.44 425.001C833.332 427.364 836.283 430.049 839.143 433.017C842.489 436.487 845.439 440.016 847.899 443.443Z" fill="white" />
            <path id="path26" d="M943.884 586.947L988.457 443.069L898.196 382.941L879.252 399.047" stroke="#192645" stroke-width="6.97211" stroke-miterlimit="10" />
            <path id="path28" d="M908.107 383.796C908.107 389.703 903.139 394.491 897.009 394.491C890.879 394.491 885.911 389.703 885.911 383.796C885.911 377.891 890.879 373.103 897.009 373.103C903.139 373.103 908.107 377.891 908.107 383.796Z" fill="#192645" />
            <path id="path30" d="M902.557 383.796C902.557 386.749 900.073 389.144 897.009 389.144C893.944 389.144 891.46 386.749 891.46 383.796C891.46 380.844 893.944 378.451 897.009 378.451C900.073 378.451 902.557 380.844 902.557 383.796Z" fill="#2F3564" />
            <path id="path36" d="M1003.11 444.536C1003.11 452.804 996.151 459.507 987.569 459.507C978.988 459.507 972.032 452.804 972.032 444.536C972.032 436.268 978.988 429.565 987.569 429.565C996.151 429.565 1003.11 436.268 1003.11 444.536Z" fill="#192645" />
            <path id="path38" d="M995.337 444.536C995.337 448.669 991.86 452.021 987.569 452.021C983.279 452.021 979.8 448.669 979.8 444.536C979.8 440.401 983.279 437.051 987.569 437.051C991.86 437.051 995.337 440.401 995.337 444.536Z" fill="#2F3564" />
        </g>
        <path id="path40" d="M1053.98 571.791H948.656V535.356H1053.98C1058.43 535.356 1062.04 538.965 1062.04 543.417V563.731C1062.04 568.183 1058.43 571.791 1053.98 571.791Z" fill="#581B3A" />
        <path id="path42" d="M1015.62 571.791H910.304V535.356H1015.62C1020.08 535.356 1023.69 538.965 1023.69 543.417V563.731C1023.69 568.183 1020.08 571.791 1015.62 571.791Z" fill="#581B3A" />
        <path id="path44" d="M1010.41 566.785H910.304V538.989H1010.41C1014.23 538.989 1017.32 542.08 1017.32 545.895V559.88C1017.32 563.693 1014.23 566.785 1010.41 566.785Z" fill="#EBEDEE" />
        <path id="path46" d="M1055.57 552.375H1031.6V549.739H1055.57V552.375Z" fill="white" />
        <path id="path48" d="M1055.57 558.023H1031.6V555.387H1055.57V558.023Z" fill="white" />
        <path id="path50" d="M1071.06 507.312H965.743V470.877H1071.06C1075.52 470.877 1079.13 474.485 1079.13 478.937V499.251C1079.13 503.703 1075.52 507.312 1071.06 507.312Z" fill="#581B3A" />
        <path id="path52" d="M1032.71 507.312H927.389V470.877H1032.71C1037.16 470.877 1040.77 474.485 1040.77 478.937V499.251C1040.77 503.703 1037.16 507.312 1032.71 507.312Z" fill="#581B3A" />
        <path id="path54" d="M1028.83 503.64H927.389V474.511H1028.83C1032.65 474.511 1035.74 477.601 1035.74 481.416V496.735C1035.74 500.548 1032.65 503.64 1028.83 503.64Z" fill="#EBEDEE" />
        <path id="path56" d="M1075.15 495.327H1045.83V482.383H1075.15V495.327Z" fill="#EBEDEE" />
        <path id="path58" d="M1072.65 487.896H1048.68V485.259H1072.65V487.896Z" fill="#192645" />
        <path id="path60" d="M1072.65 492.211H1048.68V489.573H1072.65V492.211Z" fill="#192645" />
        <path id="path62" d="M1061.65 606.309H956.328V569.873H1061.65C1066.1 569.873 1069.71 573.483 1069.71 577.935V598.248C1069.71 602.7 1066.1 606.309 1061.65 606.309Z" fill="#192645" />
        <path id="path64" d="M1023.29 606.309H917.975V569.873H1023.29C1027.75 569.873 1031.36 573.483 1031.36 577.935V598.248C1031.36 602.7 1027.75 606.309 1023.29 606.309Z" fill="#192645" />
        <path id="path66" d="M1018.08 601.303H917.975V574.84H1018.08C1021.9 574.84 1024.99 577.932 1024.99 581.745V594.397C1024.99 598.212 1021.9 601.303 1018.08 601.303" fill="#EBEDEE" />
        <path id="path68" d="M1065.73 594.324H1036.41V581.38H1065.73V594.324Z" fill="#EBEDEE" />
        <path id="path70" d="M1063.24 586.892H1039.27V584.256H1063.24V586.892Z" fill="#192645" />
        <path id="path72" d="M1063.24 591.208H1039.27V588.571H1063.24V591.208Z" fill="#192645" />
        <path id="path74" d="M934.911 507.049V535.383H1055.94C1063.76 535.383 1070.11 529.036 1070.11 521.216C1070.11 517.313 1068.52 513.768 1065.96 511.193C1063.39 508.636 1059.84 507.049 1055.94 507.049H934.911Z" fill="#D2322F" />
        <path id="path76" d="M920.847 507.049V535.383H1022.7C1030.52 535.383 1036.87 529.036 1036.87 521.216C1036.87 517.313 1035.28 513.768 1032.72 511.193C1030.15 508.636 1026.6 507.049 1022.7 507.049H920.847Z" fill="#F36543" />
        <path id="path78" d="M920.847 511.907V530.072H1018.88C1023.9 530.072 1027.96 526.008 1027.96 520.989C1027.96 518.48 1026.94 516.213 1025.31 514.561C1023.65 512.927 1021.39 511.907 1018.88 511.907H920.847Z" fill="#EBEDEE" />
        <path id="path80" d="M927.379 478.784H1032.22" stroke="#9386AC" stroke-width="1.91765" stroke-miterlimit="10" />
        <path id="path82" d="M927.379 484.857H1032.22" stroke="#9386AC" stroke-width="1.91765" stroke-miterlimit="10" />
        <path id="path84" d="M927.379 490.929H1032.22" stroke="#9386AC" stroke-width="1.91765" stroke-miterlimit="10" />
        <path id="path86" d="M927.379 497.003H1032.22" stroke="#9386AC" stroke-width="1.91765" stroke-miterlimit="10" />
        <path id="path88" d="M910.224 544.304H1015.69" stroke="#9386AC" stroke-width="1.91765" stroke-miterlimit="10" />
        <path id="path90" d="M910.224 550.377H1015.69" stroke="#9386AC" stroke-width="1.91765" stroke-miterlimit="10" />
        <path id="path92" d="M910.224 556.449H1015.69" stroke="#9386AC" stroke-width="1.91765" stroke-miterlimit="10" />
        <path id="path94" d="M910.224 562.523H1015.69" stroke="#9386AC" stroke-width="1.91765" stroke-miterlimit="10" />
        <path id="path96" d="M918.213 579.143H1023.69" stroke="#9386AC" stroke-width="1.91765" stroke-miterlimit="10" />
        <path id="path98" d="M918.213 585.215H1023.69" stroke="#9386AC" stroke-width="1.91765" stroke-miterlimit="10" />
        <path id="path100" d="M918.213 589.953H1023.69" stroke="#9386AC" stroke-width="1.91765" stroke-miterlimit="10" />
        <path id="path102" d="M918.213 596.027H1023.69" stroke="#9386AC" stroke-width="1.91765" stroke-miterlimit="10" />
        <path id="path104" d="M355.381 967.732H324.699V635.339H355.381V967.732Z" fill="#1A2E4D" />
        <path id="path106" d="M644.308 731.86L461.172 745.604L410.355 487.679L533.364 487.247C567.827 487.127 597.644 511.211 604.775 544.928L644.308 731.86Z" fill="#5E2B48" />
        <path id="path108" d="M423.928 733.537L393.465 507.843C392.109 497.787 399.225 488.451 409.28 487.093C419.335 485.736 428.672 492.852 430.029 502.907L460.491 728.603C461.848 738.657 454.732 747.995 444.677 749.352C434.623 750.709 425.285 743.592 423.928 733.537" fill="#D2322F" />
        <path id="path110" d="M549.711 764.455V891.02H528.252V764.455H549.711Z" fill="#484F7B" />
        <path id="path112" d="M549.711 771.821V800.424L528.252 792.121V772.756C533.621 772.503 543.957 772.073 549.711 771.821Z" fill="#192645" />
        <path id="path114" d="M588.696 774.688H492.813C487.54 774.688 483.225 770.373 483.225 765.1C483.225 759.827 487.54 755.512 492.813 755.512H588.696C593.971 755.512 598.285 759.827 598.285 765.1C598.285 770.373 593.971 774.688 588.696 774.688Z" fill="#262E50" />
        <path id="path116" d="M635.623 763.183H525.417C512.232 763.183 501.443 752.393 501.443 739.208C501.443 726.021 512.232 715.233 525.417 715.233H635.623C648.809 715.233 659.597 726.021 659.597 739.208C659.597 752.393 648.809 763.183 635.623 763.183Z" fill="#5E2B48" />
        <path id="path118" d="M538.781 763.821H450.629C437.443 763.821 426.655 753.033 426.655 739.847C426.655 726.661 437.443 715.872 450.629 715.872H538.781C551.967 715.872 562.756 726.661 562.756 739.847C562.756 753.033 551.967 763.821 538.781 763.821Z" fill="#D2322F" />
        <path id="path120" d="M629.927 933.215H616.503C616.503 917.177 603.455 904.131 587.419 904.131H489.617C473.58 904.131 460.533 917.177 460.533 933.215H447.109C447.109 909.776 466.179 890.707 489.617 890.707H587.419C610.857 890.707 629.927 909.776 629.927 933.215" fill="#192645" />
        <path id="path122" d="M554.499 891.027H523.176V870.571H554.499V891.027Z" fill="#192645" />
        <path id="path124" d="M464.46 946.195C464.46 952.353 459.468 957.345 453.309 957.345C447.152 957.345 442.159 952.353 442.159 946.195C442.159 940.036 447.152 935.044 453.309 935.044C459.468 935.044 464.46 940.036 464.46 946.195Z" fill="#192645" />
        <path id="path126" d="M469.389 945.211H438.873V941.823C438.873 933.719 445.443 927.149 453.547 927.149H454.716C462.82 927.149 469.389 933.719 469.389 941.823V945.211" fill="#2F3564" />
        <path id="path128" d="M634.995 946.195C634.995 952.353 630.003 957.345 623.844 957.345C617.685 957.345 612.693 952.353 612.693 946.195C612.693 940.036 617.685 935.044 623.844 935.044C630.003 935.044 634.995 940.036 634.995 946.195Z" fill="#192645" />
        <path id="path130" d="M639.924 945.211H609.408V941.823C609.408 933.719 615.977 927.149 624.081 927.149H625.251C633.355 927.149 639.924 933.719 639.924 941.823V945.211" fill="#2F3564" />
        <path id="path132" d="M548.353 935.132H530.585V894.861H548.353V935.132Z" fill="#192645" />
        <path id="path134" d="M550.995 946.195C550.995 952.353 546.001 957.345 539.844 957.345C533.685 957.345 528.693 952.353 528.693 946.195C528.693 940.036 533.685 935.044 539.844 935.044C546.001 935.044 550.995 940.036 550.995 946.195Z" fill="#192645" />
        <path id="path136" d="M555.924 945.211H525.408V941.823C525.408 933.719 531.977 927.149 540.081 927.149H541.251C549.355 927.149 555.924 933.719 555.924 941.823V945.211Z" fill="#2F3564" />
        <path id="path138" d="M765.711 558.031L796.127 566.751C798.348 567.387 800.687 566.091 801.323 563.869C801.96 561.648 800.664 559.309 798.443 558.673L768.027 549.953C765.805 549.316 763.467 550.612 762.831 552.833C762.193 555.055 763.489 557.393 765.711 558.031Z" fill="#F79073" />
        <path id="path140" d="M774.097 568.105L798.519 575.107C800.74 575.744 803.079 574.448 803.716 572.227C804.352 570.005 803.056 567.667 800.835 567.031L776.412 560.028C774.191 559.392 771.853 560.688 771.216 562.909C770.58 565.131 771.876 567.469 774.097 568.105" fill="#F79073" />
        <path id="path142" d="M767.156 573.777L796.063 582.064C798.284 582.701 800.623 581.404 801.259 579.184C801.896 576.961 800.6 574.624 798.379 573.987L769.472 565.7C767.251 565.063 764.912 566.36 764.276 568.581C763.639 570.803 764.935 573.14 767.156 573.777Z" fill="#F79073" />
        <path id="path144" d="M743.045 575.92L774.077 582.104C776.343 582.555 778.567 581.071 779.019 578.804C779.471 576.539 777.985 574.315 775.719 573.863L744.688 567.679C742.421 567.227 740.199 568.712 739.747 570.977C739.295 573.244 740.78 575.468 743.045 575.92" fill="#F79073" />
        <path id="path146" d="M788.852 565.569C788.532 565.463 785.083 563.791 781.351 561.968C774.907 558.82 767.805 557.253 760.635 557.392L746.903 557.659C746.903 557.659 744.267 580.431 745.225 580.191C746.184 579.952 775.428 585.225 775.428 585.225L788.852 565.569" fill="#F79073" />
        <path id="path148" d="M751.697 590.525H738.593V555.415H751.697V590.525Z" fill="#EBEDEE" />
        <path id="path152" d="M753.557 932.465L672.785 936.101L672.525 930.312L759.085 926.416C759.229 929.613 756.755 932.321 753.557 932.465" fill="#192645" />
        <g id="leg1">
            <path id="path150" d="M672.063 933.309L751.876 930.309C756.635 930.131 760.348 926.127 760.169 921.368C760.032 917.701 757.591 914.525 754.084 913.448L714.077 901.157L670.955 903.832L672.063 933.309" fill="#9386AC" />
            <path id="path154" d="M713.627 912.868L722.545 902.432" stroke="#192645" stroke-width="1.91765" stroke-miterlimit="10" stroke-linecap="round" />
            <path id="path156" d="M720.623 915.455L729.541 905.019" stroke="#192645" stroke-width="1.91765" stroke-miterlimit="10" stroke-linecap="round" />
            <path id="path158" d="M727.371 919.035L737.407 907.204" stroke="#192645" stroke-width="1.91765" stroke-miterlimit="10" stroke-linecap="round" />
            <path id="path168" d="M667.8 905.009C672.435 827.104 671.184 755.079 665.115 740.492C658.891 731.435 621.515 709.153 584.705 692.639L605.392 646.495C631.227 658.073 693.032 687.947 708.933 715.221C715.647 726.733 722.085 749.213 718.94 828.651C717.293 870.257 715.263 902.852 715.263 902.852L667.8 905.009Z" fill="#192645" />
        </g>
        <path id="path172" d="M595.364 445.82L635.564 548.571C642.637 563.876 658.028 573.612 674.887 573.445L744.027 572.76" stroke="#162134" stroke-width="42.1884" stroke-miterlimit="10" />
        <g id="head">
            <path id="path174" d="M558.385 415.672H548.837C540.077 415.672 532.909 408.504 532.909 399.744V354.86C532.909 346.099 540.077 338.932 548.837 338.932H558.385C567.145 338.932 574.313 346.099 574.313 354.86V399.744C574.313 408.504 567.145 415.672 558.385 415.672Z" fill="#F79073" />
            <path id="path176" d="M639.307 299.025C639.236 300.035 639.144 301.041 639.032 302.048C638.465 306.891 637.409 311.596 635.896 316.063C629.443 335.181 614.808 350.312 596.379 357.583C587.228 361.203 577.137 362.873 566.659 362.137C561.477 361.773 556.512 362.136 551.796 362.499C541.067 363.324 531.625 364.151 523.876 356.42C520.28 352.836 517.081 348.887 514.383 344.601C513.321 342.913 512.324 341.208 511.413 339.448C505.857 328.712 502.637 302.419 503.547 289.489C506.108 253.027 536.939 225.296 573.104 226.201C574.136 226.233 575.167 226.285 576.196 226.357C599.049 227.963 618.455 240.664 629.549 258.844L629.569 258.865C632.815 264.204 635.344 270.029 637.044 276.169C639.039 283.407 639.863 291.12 639.307 299.025" fill="#5B293C" />
            <path id="path178" d="M549.615 312.271C549.539 313.689 549.212 315.051 548.636 316.297C547.985 317.793 546.987 319.385 545.76 320.497C543.536 322.492 540.563 323.892 537.341 323.719L530.419 323.355L525.107 323.087L525.893 307.324H525.912L526.047 304.409L526.161 302.145L526.277 300.075L526.296 299.537H526.315L538.531 300.169C541.617 300.324 544.36 301.667 546.355 303.717C547.563 304.964 548.483 306.499 549.04 308.167C549.5 309.471 549.692 310.833 549.615 312.271Z" fill="#FABBBB" />
            <path id="path180" d="M633.704 305.579L632.4 331.064L632.208 334.88C632.093 337.392 631.767 339.885 631.307 342.283C626.935 364.795 608.256 382.073 585.34 384.912C584.651 385.027 583.94 385.084 583.251 385.123C580.796 385.372 578.323 385.391 575.791 385.276C573.336 385.161 570.957 384.853 568.6 384.413C563.997 383.569 559.605 382.131 555.521 380.195L555.483 380.175C537.687 371.756 525.413 353.999 524.763 333.729C524.743 333.115 524.724 332.521 524.743 331.908C524.704 331.197 524.743 330.469 524.781 329.741V329.357L524.857 327.631L525.107 323.087L525.875 307.477L525.893 307.324V307.304L526.047 304.409L526.161 302.145L526.276 300.075L526.315 299.537C526.527 295.932 527.255 292.443 528.309 289.105C529.019 286.765 529.901 284.484 530.88 282.297C531.013 281.933 531.148 281.627 531.301 281.3C532.107 279.497 533.045 277.715 534.063 276.027L534.081 275.988C537.936 269.545 543.133 263.965 549.269 259.649C550.497 258.787 551.763 257.963 553.048 257.196C562.003 251.941 572.512 249.123 583.596 249.697C598.419 250.464 611.708 257.119 620.971 267.283C625.937 272.709 629.197 279.076 631.575 286.115C632.496 288.799 633.091 291.56 633.416 294.38C633.857 298.003 633.915 301.743 633.704 305.579" fill="#FABDA3" />
            <path id="path182" d="M531.224 307.535L530.419 323.355L529.863 334.036L525.663 333.825C525.356 333.805 525.049 333.787 524.763 333.729C517.763 332.887 512.489 326.5 512.833 319.481C513.007 315.837 514.695 312.808 517.264 310.507C519.565 308.455 522.595 307.361 525.893 307.324H525.912C526.296 307.285 526.621 307.285 527.005 307.324L531.224 307.535" fill="#FABBBB" />
            <path id="path184" d="M614.425 326.915C613.107 326.915 612.028 325.836 612.028 324.519V316.848C612.028 315.529 613.107 314.451 614.425 314.451C615.744 314.451 616.823 315.529 616.823 316.848V324.519C616.823 325.836 615.744 326.915 614.425 326.915Z" fill="#192645" />
            <path id="path186" d="M579.268 326.915C577.949 326.915 576.871 325.836 576.871 324.519V316.848C576.871 315.529 577.949 314.451 579.268 314.451C580.587 314.451 581.665 315.529 581.665 316.848V324.519C581.665 325.836 580.587 326.915 579.268 326.915Z" fill="#192645" />
            <path id="path188" d="M574.315 385.084C574.315 385.084 564.725 385.723 555.521 380.195L555.483 380.175C537.687 371.756 525.413 353.999 524.763 333.729C517.763 332.887 512.489 326.5 512.833 319.481C513.007 315.837 514.695 312.808 517.264 310.507C519.565 308.455 522.595 307.361 525.893 307.324V307.304L526.047 304.409L526.161 302.145L526.277 300.075L526.296 299.537H526.315C526.527 295.932 527.255 292.441 528.309 289.105C535.559 285.059 542.941 284.292 547.141 293.363C547.141 293.363 546.719 297.467 546.355 303.717C546.067 308.396 545.799 314.265 545.76 320.497C545.645 333.308 546.412 347.632 549.711 356.32C556.729 374.863 574.315 385.084 574.315 385.084" fill="#F79073" />
            <path id="path190" d="M635.813 268.637H549.365C543.689 268.637 539.044 263.993 539.044 258.316C539.044 252.64 543.689 247.996 549.365 247.996H635.813C641.491 247.996 646.135 252.64 646.135 258.316C646.135 263.993 641.491 268.637 635.813 268.637Z" fill="#5B293C" />
            <path id="path192" d="M654.633 277.004C655.477 281.655 653.853 286.061 650.867 289.048C648.412 291.503 644.999 293.037 641.279 293.037H562.453C551.148 293.037 541.983 302.201 541.983 313.507V326.251C541.983 330.48 538.523 333.94 534.292 333.94H532.471C528.224 333.94 524.781 330.497 524.781 326.251V287.859C524.781 287.552 524.8 287.265 524.839 286.976C523.381 284.828 522.537 282.221 522.537 279.46C522.537 275.72 524.072 272.327 526.527 269.852C528.98 267.397 532.395 265.864 536.115 265.864H640.72C647.392 265.864 653.441 270.439 654.633 277.004" fill="#5B293C" />
            <path id="path194" d="M627.848 307.419H610.909C609.239 307.419 607.873 306.053 607.873 304.383C607.873 302.713 609.239 301.347 610.909 301.347H627.848C629.519 301.347 630.885 302.713 630.885 304.383C630.885 306.053 629.519 307.419 627.848 307.419Z" fill="#5E2B48" />
            <path id="path196" d="M586.619 307.419H569.68C568.009 307.419 566.643 306.053 566.643 304.383C566.643 302.713 568.009 301.347 569.68 301.347H586.619C588.289 301.347 589.655 302.713 589.655 304.383C589.655 306.053 588.289 307.419 586.619 307.419Z" fill="#5E2B48" />
            <path id="path198" d="M588.696 329.152L580.707 313.492H586.46L594.769 328.513L588.696 329.152" fill="#FDDED3" />
            <path id="path200" d="M626.091 329.152L618.101 313.492H623.853L632.164 328.513L626.091 329.152Z" fill="#FDDED3" />
            <path id="path202" d="M628.097 330.032H610.055C608.044 330.032 606.399 328.387 606.399 326.377V316.427C606.399 314.417 608.044 312.772 610.055 312.772H628.097C630.108 312.772 631.752 314.417 631.752 316.427V326.377C631.752 328.387 630.108 330.032 628.097 330.032Z" stroke="#192645" stroke-width="1.72989" stroke-miterlimit="10" />
            <path id="path204" d="M592.844 330.032H573.035C570.945 330.032 569.235 328.321 569.235 326.232V316.572C569.235 314.483 570.945 312.772 573.035 312.772H592.844C594.935 312.772 596.644 314.483 596.644 316.572V326.232C596.644 328.321 594.935 330.032 592.844 330.032Z" stroke="#192645" stroke-width="1.79867" stroke-miterlimit="10" />
            <path id="path206" d="M606.775 350.637C603.939 353.577 599.543 355.293 594.699 355.044C590.639 354.836 587.031 353.287 584.484 350.897" stroke="#F36543" stroke-width="1.91765" stroke-miterlimit="10" />
            <path id="path208" d="M607.981 336.801L607.653 336.792C607.573 339.515 605.213 341.677 599.371 341.509L598.684 320.044C604.917 327.953 607.553 332.348 607.981 336.801" fill="#F79073" />
            <path id="path210" d="M597.007 321.481L607.233 321.801" stroke="#192645" stroke-width="1.79867" stroke-miterlimit="10" />
        </g>
        <path id="path212" d="M621.181 466.508V660.268L480.333 675.667L473.407 466.508C473.407 435.364 495.959 409.457 525.624 404.243C529.192 403.628 532.855 403.301 536.612 403.301H557.976C592.877 403.301 621.181 431.607 621.181 466.508Z" fill="#192645" />
        <path id="path214" d="M610.001 677.277C610.001 686.003 606.895 693.999 601.736 700.232C595.14 708.228 585.129 713.329 573.931 713.329H513.313C511.511 713.329 509.747 713.196 508.02 712.927C503.571 712.293 499.391 710.817 495.632 708.689C494.961 708.324 494.309 707.921 493.676 707.5C483.801 701.076 477.261 689.933 477.261 677.277L478.373 658.043L608.947 656.912L610.001 677.277Z" fill="#192645" />
        <path id="path216" d="M582.944 626.667H534.223V399.467H582.944V626.667Z" fill="#EBEDEE" />
        <path id="path218" d="M560.215 429.292L546.005 409.06L559.096 401.229L574.424 409.06L560.215 429.292Z" fill="#192645" />
        <path id="path220" d="M565.239 632.18L549.369 610.765L555.74 419.767L565.592 420.712L579.996 609.984L565.239 632.18" fill="#192645" />
        <path id="path222" d="M583.787 418.183L560.933 402.537L534.224 418.183L532.333 398.927H583.787V418.183Z" fill="white" />
        <g id="leg2">
            <path id="path224" d="M572.353 919.571L647.041 947.873C651.495 949.56 656.473 947.319 658.16 942.864C659.46 939.435 658.448 935.557 655.639 933.201L623.571 906.308L582.807 891.987L572.353 919.571" fill="#9386AC" />
            <path id="path226" d="M647.751 950.513L571.932 922.424L573.945 916.991L655.197 947.093C654.085 950.095 650.752 951.625 647.751 950.513Z" fill="#192645" />
            <path id="path228" d="M633.876 826.012C632.821 867.26 629.177 904.98 629.025 906.553L602.255 903.944L578.705 901.663C585.532 831.343 585.225 760.6 578.111 745.508C569.865 737.741 537.821 723.589 508.02 712.927C503.821 711.432 499.66 710.012 495.632 708.689C494.923 708.44 494.213 708.209 493.504 707.979L493.676 707.5C493.676 707.5 518.383 664.104 570.429 679.036C581.399 682.183 590.403 692.6 601.736 700.232C607.604 704.163 612.609 708.209 616.253 712.217C626.647 723.647 635.967 745.335 633.876 826.012" fill="#1A2E4D" />
            <path id="path230" d="M616.023 914.357L628.488 908.604" stroke="#192645" stroke-width="1.91765" stroke-miterlimit="10" stroke-linecap="round" />
            <path id="path232" d="M621.296 919.631L633.761 913.879" stroke="#192645" stroke-width="1.91765" stroke-miterlimit="10" stroke-linecap="round" />
            <path id="path234" d="M625.931 925.704L639.993 919.152" stroke="#192645" stroke-width="1.91765" stroke-miterlimit="10" stroke-linecap="round" />
        </g>
        <path id="path236" d="M527.964 490.881L473.407 468.521V466.508C473.407 435.364 495.959 409.457 525.624 404.243C525.76 404.356 525.912 404.472 526.047 404.587L527.964 490.881" fill="#1A2E4D" />
        <path id="path238" d="M602.255 903.944L578.705 901.663C585.532 831.343 585.225 760.6 578.111 745.508C569.865 737.741 537.821 723.589 508.02 712.927C503.571 712.293 499.391 710.817 495.632 708.689C494.923 708.44 494.213 708.209 493.504 707.979L493.676 707.5C483.801 701.076 477.261 689.933 477.261 677.277L478.373 658.043L499.2 660.901C498.701 662.396 495.883 677.085 501.021 685.907C502.46 688.42 504.549 690.452 507.521 691.584C515.672 694.691 546.681 702.284 571.361 713.329C587.316 720.483 600.644 729.093 603.404 738.892C609.887 761.904 603.309 885.132 602.255 903.944" fill="#192645" />
        <path id="path240" d="M877.304 603.537H751.76C743.548 603.537 738.121 595 741.607 587.564L785.392 494.153C789.211 486.009 797.393 480.807 806.388 480.807H921.971C927.959 480.807 931.916 487.032 929.375 492.455L877.304 603.537" fill="#B0A5C7" />
        <path id="path242" d="M752.225 603.857H662.708C659.092 603.857 656.135 600.899 656.135 597.284C656.135 593.668 659.092 590.711 662.708 590.711H752.225C755.841 590.711 758.799 593.668 758.799 597.284C758.799 600.899 755.841 603.857 752.225 603.857Z" fill="#B0A5C7" />
        <path id="path244" d="M720.056 598.903H707.272V595.068H720.056V598.903Z" fill="#192645" />
        <path id="path246" d="M703.436 598.903H694.168V595.068H703.436V598.903Z" fill="#192645" />
        <path id="path248" d="M875.413 603.537H749.576C745.057 603.537 742.073 598.841 743.991 594.751L791.145 494.153C794.963 486.009 803.147 480.807 812.141 480.807H927.724C933.712 480.807 937.668 487.032 935.127 492.455L886.301 596.617C884.321 600.84 880.077 603.537 875.413 603.537" fill="#7D7591" />
        <path id="path250" d="M847.921 549.341C844.939 556.321 839.363 560.629 835.468 558.964C831.572 557.3 830.832 550.292 833.815 543.312C836.797 536.333 842.375 532.025 846.269 533.689C850.165 535.355 850.904 542.363 847.921 549.341" fill="white" />
        <path id="path252" d="M651.645 574.547L682.889 569.553C685.171 569.188 686.74 567.023 686.375 564.741C686.011 562.46 683.845 560.891 681.564 561.256L650.319 566.249C648.037 566.615 646.468 568.78 646.833 571.061C647.197 573.344 649.363 574.912 651.645 574.547Z" fill="#F79073" />
        <path id="path254" d="M661.593 582.995L686.68 578.985C688.963 578.62 690.531 576.455 690.167 574.173C689.801 571.892 687.636 570.323 685.355 570.688L660.267 574.697C657.985 575.063 656.417 577.228 656.781 579.509C657.147 581.791 659.312 583.36 661.593 582.995Z" fill="#F79073" />
        <path id="path256" d="M655.793 593.949L685.487 589.204C687.768 588.839 689.337 586.673 688.972 584.392C688.608 582.111 686.443 580.541 684.161 580.907L654.467 585.653C652.185 586.017 650.617 588.183 650.981 590.464C651.347 592.747 653.512 594.315 655.793 593.949Z" fill="#F79073" />
        <path id="path258" d="M665.132 566.468C664.797 566.508 660.964 566.456 656.812 566.387C649.641 566.267 642.544 567.857 636.108 571.023L623.785 577.084C623.785 577.084 630.843 598.028 631.816 598.204C655.575 602.499 663.725 591.712 663.725 591.712L665.132 566.468" fill="#F79073" />
        <path id="path260" d="M646.736 600.664H636.189V566.385H646.736V600.664Z" fill="#EBEDEE" />
        <path id="path262" d="M567.075 604.384C542.208 604.384 519.473 589.869 509.027 567.263L508.511 566.147L475.963 466.757L516.057 453.628L547.775 550.484C551.537 557.711 559.105 562.284 567.289 562.195L636.429 561.509L636.847 603.696L567.707 604.381C567.497 604.383 567.284 604.384 567.075 604.384Z" fill="#1A2E4D" />
        <path id="path264" d="M579.268 658.313H544.111V646.205H579.268V658.313Z" fill="#9386AC" />
        <path id="path266" d="M504.959 967.732H474.276V635.339H504.959V967.732Z" fill="#7D7591" />
        <path id="path268" d="M897.44 635.333V967.733H866.76V635.333H897.44Z" fill="#7D7591" />
        <path id="path270" d="M1047.01 635.333V967.733H1016.33V635.333H1047.01Z" fill="#7D7591" />
        <path id="path272" d="M866.76 635.333H897.44V744.973L866.76 760.2V635.333Z" fill="#2F3564" />
        <path id="path274" d="M1047.01 635.333V670.747L1016.33 685.973V635.333H1047.01Z" fill="#2F3564" />
        <path id="path276" d="M505.215 634.679V670.549L474.139 685.973V634.679H505.215Z" fill="#2F3564" />
        <path id="path278" d="M295.884 645.256H984.608V617.328C984.608 609.864 978.557 603.813 971.093 603.813H309.399C301.935 603.813 295.884 609.864 295.884 617.328V645.256" fill="#2F3564" />
        <path id="path280" d="M547.077 605.113H396.663V573.111H547.077V605.113Z" fill="#C4C3C8" />
        <path id="path282" d="M547.475 605.477H477.915V572.748H547.475V605.477Z" fill="#EBEDEE" />
        <path id="path284" d="M396.795 579.001H547.343" stroke="#9386AC" stroke-width="2.3588" stroke-miterlimit="10" />
        <path id="path286" d="M396.795 585.439H547.343" stroke="#9386AC" stroke-width="2.3588" stroke-miterlimit="10" />
        <path id="path288" d="M396.795 591.875H547.343" stroke="#9386AC" stroke-width="2.3588" stroke-miterlimit="10" />
        <path id="path290" d="M396.795 598.312H547.343" stroke="#9386AC" stroke-width="2.3588" stroke-miterlimit="10" />
        <path id="path292" d="M358.719 967.684H147.531V697.123H358.719V967.684Z" fill="#5E2B48" />
        <path id="path294" d="M450.536 967.684H226.013V697.123H450.536V967.684Z" fill="#5E2B48" />
        <path id="path296" d="M437.256 788.532H240.377V716.939H437.256V788.532Z" fill="#F36543" />
        <path id="path298" d="M437.256 872.541H240.377V800.949H437.256V872.541Z" fill="#F36543" />
        <path id="path300" d="M437.256 956.551H240.377V884.959H437.256V956.551Z" fill="#F36543" />
        <path id="path302" d="M373.28 756.571H324.06C321.951 756.571 320.224 754.844 320.224 752.735C320.224 750.625 321.951 748.9 324.06 748.9H373.28C375.389 748.9 377.115 750.625 377.115 752.735C377.115 754.844 375.389 756.571 373.28 756.571Z" fill="white" />
        <path id="path304" d="M375.197 839.988H325.977C323.868 839.988 322.143 838.263 322.143 836.153C322.143 834.044 323.868 832.317 325.977 832.317H375.197C377.307 832.317 379.032 834.044 379.032 836.153C379.032 838.263 377.307 839.988 375.197 839.988Z" fill="white" />
        <path id="path306" d="M375.197 923.407H325.977C323.868 923.407 322.143 921.681 322.143 919.572C322.143 917.461 323.868 915.736 325.977 915.736H375.197C377.307 915.736 379.032 917.461 379.032 919.572C379.032 921.681 377.307 923.407 375.197 923.407Z" fill="white" />
        <path id="path308" d="M628.648 559.515V606.573H589.336V559.515C589.336 557.443 591.023 555.756 593.095 555.756H624.889C626.96 555.756 628.648 557.443 628.648 559.515" fill="#F8A12B" />
        <path id="path310" d="M589.82 598.521C589.307 598.225 577.239 591.157 576.163 578.777C575.752 574.056 577.539 571.132 579.109 569.509C583.429 565.048 590.607 565.305 591.411 565.348L591.097 571.093C589.639 571.025 585.348 571.321 583.231 573.523C582.151 574.647 581.713 576.201 581.893 578.279C582.713 587.7 592.587 593.475 592.685 593.532L589.82 598.521Z" fill="#F14E30" />
        <path id="path312" d="M618.94 585.719H607.673C603.768 585.719 600.601 582.553 600.601 578.648C600.601 574.743 603.768 571.576 607.673 571.576H618.94C622.845 571.576 626.011 574.743 626.011 578.648C626.011 582.553 622.845 585.719 618.94 585.719Z" fill="#D2322F" />
        <path id="path314" d="M610.276 606.573H589.336V559.515C589.336 557.443 591.023 555.756 593.095 555.756H594.36C594.417 558.211 595.088 576.984 600.363 590.504C604.945 602.277 609.029 605.749 610.276 606.573" fill="#F14E30" />
        <path id="path316" d="M918.213 579.143H1023.69" stroke="#9386AC" stroke-width="1.91765" stroke-miterlimit="10" />
        <path id="path318" d="M918.213 585.215H1023.69" stroke="#9386AC" stroke-width="1.91765" stroke-miterlimit="10" />
        <path id="path320" d="M918.213 589.953H1023.69" stroke="#9386AC" stroke-width="1.91765" stroke-miterlimit="10" />
        <path id="path322" d="M918.213 596.027H1023.69" stroke="#9386AC" stroke-width="1.91765" stroke-miterlimit="10" />
        <path id="path324" d="M463.089 573.653L488.339 519.32L513.268 573.015L463.089 573.653Z" fill="white" />
        <path id="path326" d="M488.339 572.056H442.955V519.64H488.339V572.056Z" fill="white" />
        <path id="path328" d="M419.623 573.653L442.635 519.96L467.564 573.653H419.623Z" fill="#2F3564" />
        <path id="path330" d="M484.184 528.589H461.492V526.352H484.184V528.589Z" fill="#9386AC" />
        <path id="path332" d="M486.101 533.064H463.409V530.827H486.101V533.064Z" fill="#9386AC" />
        <path id="path334" d="M466.687 540.215L477.223 565.053L500.353 564.489L489.113 540.399L466.687 540.215ZM475.98 567.035L463.815 538.353L490.296 538.457L503.361 566.263L475.98 567.035Z" fill="#9386AC" />
        <path id="path336" d="M468.124 544.329H492.367" stroke="#9386AC" stroke-width="1.94809" stroke-miterlimit="10" />
        <path id="path338" d="M470.227 549.563H494.469" stroke="#9386AC" stroke-width="1.94809" stroke-miterlimit="10" />
        <path id="path340" d="M471.959 554.797H496.201" stroke="#9386AC" stroke-width="1.94809" stroke-miterlimit="10" />
        <path id="path342" d="M474.803 560.031H499.045" stroke="#9386AC" stroke-width="1.94809" stroke-miterlimit="10" />
        <path id="path344" d="M485.143 539.895L496.409 564.944" stroke="#9386AC" stroke-width="1.94809" stroke-miterlimit="10" />
        <path id="path346" d="M478.431 540.015L489.697 565.064" stroke="#9386AC" stroke-width="1.94809" stroke-miterlimit="10" />
        <path id="path348" d="M471.835 539.539L482.985 565.544" stroke="#9386AC" stroke-width="1.94809" stroke-miterlimit="10" />
        <path id="path350" d="M1025.33 568.308L1019.03 567.193L1034.41 480.331L1040.7 481.445L1025.33 568.308Z" fill="#424FA8" />
        <path id="path352" d="M1038.36 505.697L1028.6 503.971L1033.22 477.849L1042.98 479.576L1038.36 505.697Z" fill="#424FA8" />
        <path id="path354" d="M1014.83 579.397L1008.46 578.864L1015.84 490.96L1019.69 485.337L1022.21 491.493L1014.83 579.397Z" fill="#5E2B48" />
        <path id="path356" d="M1005.98 583.889L999.707 585.111L982.849 498.524L985.025 492.064L989.124 497.303L1005.98 583.889" fill="#1A2E4D" />
        <path id="path358" d="M1020.09 604.031H992.767L983.809 531.705H1029.05L1020.09 604.031" fill="#F14E30" />
        <path id="path360" d="M1030.39 604.031H1003.07L999.037 531.705H1039.35L1030.39 604.031" fill="#F8A12B" />
        <path id="path362" d="M359.111 661.6V697.333H248.185C240.439 697.333 233.821 692.385 231.347 685.473C230.683 683.603 230.311 681.577 230.311 679.459C230.311 674.541 232.305 670.073 235.537 666.827C238.784 663.595 243.253 661.6 248.185 661.6H359.111" fill="#424FA8" />
        <path id="path364" d="M317.317 685.473V697.333H248.185C240.439 697.333 233.821 692.385 231.347 685.473H317.317Z" fill="#31427F" />
        <path id="path366" d="M401.036 661.593V697.337L290.112 697.336C280.247 697.336 272.24 689.329 272.24 679.465C272.24 674.541 274.241 670.069 277.469 666.823C280.716 663.595 285.189 661.593 290.112 661.593H401.036" fill="#192645" />
        <path id="path368" d="M401.036 667.721V690.637L294.932 690.636C288.6 690.636 283.473 685.511 283.473 679.179C283.473 676.013 284.76 673.153 286.824 671.071C288.907 669.007 291.767 667.721 294.932 667.721H401.036" fill="#EBEDEE" />
        <path id="path370" d="M361.524 590.568V626.311L250.6 626.309C240.735 626.309 232.728 618.304 232.728 608.439C232.728 603.516 234.731 599.043 237.957 595.796C241.204 592.568 245.677 590.567 250.6 590.567L361.524 590.568Z" fill="#F8A12B" />
        <path id="path372" d="M319.379 602.499V590.639H250.247C242.5 590.639 235.883 595.587 233.409 602.499H319.379Z" fill="#FBD41F" />
        <path id="path374" d="M401.036 590.568V626.311H290.112C280.247 626.311 272.24 618.304 272.24 608.439C272.24 603.516 274.241 599.043 277.469 595.796C280.716 592.568 285.189 590.567 290.112 590.567L401.036 590.568Z" fill="#F36543" />
        <path id="path376" d="M401.036 596.695V619.611H294.932C288.6 619.611 283.473 614.484 283.473 608.152C283.473 604.987 284.76 602.128 286.824 600.044C288.907 597.981 291.767 596.695 294.932 596.695H401.036" fill="#EBEDEE" />
        <path id="path378" d="M367.971 626.516V662.265H257.045C247.18 662.265 239.187 654.256 239.187 644.391C239.187 641.36 239.944 638.5 241.273 635.995C242.109 634.433 243.176 632.995 244.413 631.743C247.66 628.511 252.128 626.516 257.045 626.516H367.971" fill="#94D223" />
        <path id="path380" d="M350.808 626.516V635.995H241.273C242.109 634.433 243.176 632.995 244.413 631.743C247.66 628.511 252.128 626.516 257.045 626.516H350.808Z" fill="#63A130" />
        <path id="path382" d="M350.808 662.28V652.801H241.273C242.109 654.364 243.176 655.801 244.413 657.053C247.66 660.285 252.128 662.28 257.045 662.28H350.808Z" fill="#63A130" />
        <path id="path384" d="M422.808 626.517V662.26H311.884C302.019 662.26 294.012 654.253 294.012 644.388C294.012 639.465 296.013 634.992 299.241 631.745C302.488 628.519 306.961 626.516 311.884 626.516L422.808 626.517Z" fill="#468632" />
        <path id="path386" d="M422.808 632.644V655.56H316.704C310.372 655.56 305.245 650.433 305.245 644.101C305.245 640.936 306.532 638.077 308.596 635.993C310.679 633.931 313.539 632.644 316.704 632.644H422.808" fill="#EBEDEE" />
        <path id="left1" d="M252.401 602.973C237.561 623.183 207.789 626.537 207.789 626.537C207.789 626.537 202.079 597.127 216.919 576.917C231.759 556.708 261.531 553.355 261.531 553.355C261.531 553.355 267.241 582.765 252.401 602.973Z" fill="#497F2F" />
        <path id="left3" d="M190.085 590.889C203.689 604.297 202.947 627.109 202.947 627.109C202.947 627.109 180.148 628.183 166.544 614.775C152.94 601.367 153.681 578.555 153.681 578.555C153.681 578.555 176.481 577.481 190.085 590.889Z" fill="#386834" />
        <path id="left2" d="M223.803 580.747C226.567 605.667 206.931 628.295 206.931 628.295C206.931 628.295 182.812 610.519 180.048 585.6C177.285 560.68 196.921 538.052 196.921 538.052C196.921 538.052 221.039 555.827 223.803 580.747Z" fill="#59B84C" />
        <path id="path394" d="M221.961 697.144H170.32L153.388 621.799H238.893L221.961 697.144Z" fill="#5E2B48" />
        <path id="path396" d="M241.432 697.144H189.792L182.172 621.799H258.364L241.432 697.144Z" fill="#9D4534" />
        <path id="path398" d="M448.019 645.256H1098.39V617.328C1098.39 609.864 1092.34 603.813 1084.87 603.813H461.533C454.069 603.813 448.019 609.864 448.019 617.328V645.256Z" fill="#5273C2" />
    </g>
</svg>