<svg width="479" height="384" viewBox="0 0 479 384" fill="none" xmlns="http://www.w3.org/2000/svg">
    <g id="undraw_social_thinking_re_y8cc 1" clip-path="url(#clip0_1_2)">
        <g id="Group 2">
            <g id="Group">
                <path id="Vector" d="M370.814 369.639L360.951 371.47L349.195 334.302L363.751 331.6L370.814 369.639Z" fill="#FFB6B6" />
                <path id="Vector_2" d="M336.984 375.691C336.773 376.265 336.921 377.964 337.032 378.566C337.376 380.414 339.153 381.635 341.001 381.291L371.543 375.619C372.804 375.385 373.636 374.173 373.402 372.911L373.166 371.64C373.166 371.64 373.967 367.538 369.981 363.405C369.981 363.405 366.8 367.811 359.951 363.108L357.674 360.338L347.018 371.646L340.339 373.757C338.878 374.219 337.512 374.253 336.984 375.691V375.691Z" fill="#2F2E41" />
            </g>
            <g id="Group 1">
                <g id="Group_2">
                    <path id="Vector_3" d="M300.444 375.337L290.413 375.336L285.642 336.646L300.446 336.647L300.444 375.337Z" fill="#FFB6B6" />
                    <path id="Vector_4" d="M266.078 375.109C265.765 375.635 265.601 377.333 265.601 377.945C265.601 379.825 267.125 381.349 269.005 381.349H300.069C301.351 381.349 302.391 380.309 302.391 379.027V377.733C302.391 377.733 303.928 373.846 300.764 369.056C300.764 369.056 296.832 372.807 290.956 366.931L289.223 363.792L276.681 372.965L269.729 373.821C268.209 374.008 266.86 373.792 266.078 375.109V375.109Z" fill="#2F2E41" />
                </g>
                <path id="Vector_5" d="M346.234 184.131L370.941 349.554L347.941 352.554L307.941 221.554L302.941 356.554H281.504C281.504 356.554 262.989 207.554 268.465 189.554C273.941 171.554 346.234 184.131 346.234 184.131V184.131Z" fill="#2F2E41" />
                <path id="Vector_6" d="M292.941 51.5536H316.941L320.441 60.0536C320.441 60.0536 334.441 68.0536 334.441 71.0536C334.441 74.0536 342.941 149.554 342.941 149.554L347.441 191.054C347.441 191.054 294.941 217.554 268.941 190.554L273.941 144.554C273.941 144.554 269.941 72.5536 271.941 69.5536C273.941 66.5536 288.941 59.5536 288.941 59.5536L292.941 51.5536V51.5536Z" fill="#6C63FF" />
            </g>
        </g>
        <g id="rightHand2">
            <path id="Vector_7" d="M190.976 178.611C186.123 183.183 179.83 184.386 176.92 181.298C174.011 178.209 175.586 171.999 180.44 167.427C182.564 165.425 184.964 164.069 187.236 163.436L208.043 144.32L216.806 154.275L195.364 172.064C194.597 174.294 193.101 176.609 190.976 178.611V178.611Z" fill="#FFB6B6" />
            <path id="Vector_8" d="M285.435 64.4536H285.435C285.435 64.4536 292.749 75.5067 290.441 80.0536C288.134 84.6005 252.117 128.237 252.117 128.237L208.662 164.023L195.925 152.72L236.856 113.673L263.303 74.6702C267.512 66.6418 276.595 62.4489 285.435 64.4536V64.4536Z" fill="#6C63FF" />
        </g>
        <g id="leftHand2">
            <path id="Vector_9" d="M367.96 208.119C369.005 214.705 366.454 220.582 362.264 221.247C358.073 221.912 353.829 217.112 352.784 210.527C352.327 207.644 352.558 204.897 353.315 202.664L349.238 174.703L362.4 173.07L365.022 200.806C366.432 202.696 367.503 205.237 367.96 208.119V208.119Z" fill="#FFB6B6" />
            <path id="Vector_10" d="M316.77 65.547C316.77 65.547 337.465 60.9153 341.225 72.3919C344.984 83.8685 367.577 192.728 367.577 192.728L350.366 194.634L337.441 120.054L316.77 65.547H316.77Z" fill="#6C63FF" />
        </g>
        <g id="head2">
            <path id="Vector_11" d="M305.764 45.9869C317.16 45.9869 326.398 36.7487 326.398 25.3528C326.398 13.9569 317.16 4.71867 305.764 4.71867C294.368 4.71867 285.13 13.9569 285.13 25.3528C285.13 36.7487 294.368 45.9869 305.764 45.9869Z" fill="#FFB6B6" />
            <path id="Vector_12" d="M317.837 42.8731C316.514 42.9374 314.767 42.6854 314.546 41.3795C314.389 40.4582 315.166 39.6641 315.897 39.0823C316.917 38.2712 317.992 37.515 318.868 36.5507C319.745 35.5864 320.419 34.3669 320.436 33.0642C320.452 31.7614 319.677 30.4022 318.43 30.0231C317.184 29.6439 315.629 30.5707 315.61 31.8734C314.409 30.0485 314.249 27.7492 314.186 25.5652C314.149 24.2872 314.133 23.0085 314.137 21.73C314.143 19.9832 314.187 18.2369 314.231 16.4908C313.372 16.4455 306.441 19.0536 305.441 19.0536C304.581 19.0536 297.672 17.682 298.132 15.7137C297.996 16.9717 291.405 19.2377 291.27 18.5793C291.136 17.9208 290.644 17.2258 289.973 17.2651C289.266 17.3066 288.882 18.0905 288.644 18.7579C288.113 20.248 286.823 22.8233 285.441 22.0536C274.982 16.2285 283.415 14.4142 284.654 12.0453C286.177 9.13326 287.802 6.10364 290.513 4.2459C293.224 2.38816 295.363 0.169974 297.499 2.66795C302.855 -1.23669 308.17 -0.294826 314.413 1.93173C320.657 4.15829 325.651 9.60612 327.328 16.0191C328.097 18.9586 330.156 20.2484 328.622 22.8709C330.313 25.139 329.397 23.8557 329.731 26.6651C329.995 28.8817 329.774 31.2213 328.675 33.1641C327.501 35.2396 325.422 36.6836 323.2 37.549C320.978 38.4144 320.594 42.7609 318.234 43.1012" fill="#2F2E41" />
        </g>
        <path id="Vector_13" d="M420.346 365.602C422.412 365.731 423.553 363.164 421.99 361.668L421.835 361.05C421.855 361 421.876 360.951 421.897 360.902C423.986 355.92 431.067 355.954 433.138 360.943C434.977 365.372 437.318 369.807 437.894 374.489C438.152 376.556 438.036 378.662 437.577 380.69C441.885 371.279 444.153 361.003 444.153 350.669C444.153 348.072 444.01 345.476 443.72 342.886C443.481 340.768 443.151 338.662 442.725 336.576C440.419 325.299 435.427 314.557 428.225 305.586C424.763 303.694 421.876 300.735 420.132 297.19C419.506 295.911 419.015 294.535 418.782 293.133C419.176 293.185 420.268 287.185 419.971 286.817C420.52 285.983 421.502 285.569 422.102 284.756C425.084 280.713 429.193 281.419 431.338 286.914C435.92 289.226 435.965 293.062 433.153 296.75C431.364 299.097 431.119 302.273 429.549 304.785C429.711 304.992 429.878 305.192 430.04 305.399C433.001 309.197 435.562 313.279 437.721 317.567C437.111 312.801 438.012 307.059 439.547 303.358C441.296 299.14 444.572 295.589 447.458 291.943C450.924 287.564 458.031 289.475 458.642 295.026C458.648 295.08 458.654 295.134 458.659 295.187C458.231 295.429 457.811 295.686 457.401 295.957C455.061 297.504 455.87 301.131 458.642 301.559L458.704 301.569C458.549 303.112 458.285 304.643 457.897 306.148C461.599 320.464 453.607 325.678 442.196 325.912C441.944 326.041 441.698 326.17 441.446 326.293C442.602 329.548 443.526 332.888 444.211 336.272C444.824 339.263 445.251 342.285 445.49 345.321C445.787 349.151 445.761 353.001 445.438 356.824L445.457 356.689C446.277 352.477 448.564 348.544 451.884 345.818C456.829 341.756 463.817 340.26 469.152 336.994C471.72 335.422 475.012 337.454 474.563 340.431L474.542 340.574C473.747 340.897 472.972 341.271 472.223 341.691C471.794 341.933 471.374 342.19 470.964 342.461C468.625 344.008 469.433 347.635 472.205 348.063L472.268 348.072C472.313 348.079 472.352 348.085 472.397 348.092C471.034 351.328 469.135 354.331 466.759 356.921C464.444 369.418 454.503 370.604 443.868 366.965H443.862C442.699 372.028 441.001 376.976 438.818 381.691H420.797C420.733 381.491 420.675 381.284 420.616 381.084C422.283 381.187 423.962 381.09 425.603 380.787C424.266 379.146 422.929 377.493 421.592 375.852C421.559 375.82 421.534 375.787 421.508 375.755C420.83 374.916 420.145 374.082 419.467 373.243L419.466 373.242C419.424 370.664 419.733 368.095 420.345 365.602L420.346 365.602V365.602Z" fill="#F2F2F2" />
        <path id="Vector_14" d="M0 382.047C0 382.707 0.53003 383.237 1.19006 383.237H477.48C478.14 383.237 478.67 382.707 478.67 382.047C478.67 381.387 478.14 380.857 477.48 380.857H1.19006C0.53003 380.857 0 381.387 0 382.047Z" fill="#CCCCCC" />
        <path id="Vector_15" d="M107.489 273.849L107.353 271.852C111.255 271.588 115.166 271.054 118.979 270.264L119.385 272.223C115.483 273.03 111.481 273.577 107.489 273.849V273.849ZM95.4696 273.671C91.434 273.308 87.4447 272.729 83.6132 271.953L84.0107 269.992C87.7704 270.755 91.6864 271.322 95.6493 271.679L95.4696 273.671H95.4696ZM130.949 268.984L130.278 267.1C133.954 265.792 137.573 264.216 141.038 262.416L141.959 264.191C138.414 266.033 134.71 267.645 130.949 268.984H130.949ZM72.0268 268.858C68.1957 267.573 64.4608 266.039 60.9262 264.296L61.81 262.503C65.265 264.205 68.9159 265.706 72.6625 266.962L72.0268 268.858V268.858ZM50.5575 258.236C47.2558 255.973 44.098 253.449 41.1727 250.735L42.5331 249.268C45.3866 251.916 48.4672 254.378 51.6884 256.586L50.5575 258.236H50.5575ZM152.207 257.943L151.052 256.31C154.238 254.057 157.298 251.562 160.149 248.898L161.514 250.359C158.598 253.085 155.467 255.637 152.207 257.943ZM32.9848 241.927C30.4965 238.821 28.2025 235.49 26.1674 232.027L27.892 231.014C29.8783 234.394 32.1171 237.645 34.5453 240.677L32.9848 241.927V241.927ZM169.711 241.586L168.161 240.322C170.628 237.292 172.908 234.066 174.937 230.736L176.645 231.777C174.569 235.184 172.236 238.484 169.711 241.586H169.711ZM20.8188 221.272C19.3007 217.604 18.0102 213.776 16.9833 209.893L18.9169 209.382C19.9208 213.179 21.1825 216.922 22.6664 220.507L20.8187 221.272L20.8188 221.272ZM182.179 221.116L180.345 220.317C181.902 216.739 183.225 213.016 184.276 209.253L186.202 209.792C185.126 213.642 183.772 217.453 182.179 221.116ZM14.6762 198.111C14.1649 194.159 13.9037 190.129 13.9003 186.134L15.9003 186.132C15.9037 190.043 16.1591 193.987 16.6596 197.855L14.6762 198.111V198.111ZM188.633 198.032L186.651 197.763C187.176 193.908 187.441 189.969 187.441 186.054L187.441 185.873H189.441L189.441 186.046C189.441 190.058 189.169 194.089 188.633 198.032V198.032ZM16.6396 174.407L14.6552 174.153C15.1625 170.18 15.9315 166.214 16.9413 162.369L18.8759 162.876C17.8881 166.639 17.1356 170.518 16.6395 174.407H16.6396ZM186.627 174.168C186.093 170.299 185.285 166.434 184.228 162.682L186.153 162.14C187.235 165.979 188.061 169.934 188.609 173.894L186.627 174.168H186.627ZM22.6049 151.746L20.7553 150.984C22.2851 147.27 24.0771 143.65 26.081 140.224L27.8075 141.234C25.8495 144.58 24.099 148.117 22.6049 151.746H22.6049ZM180.277 151.633C178.716 148.064 176.892 144.566 174.854 141.235L176.56 140.191C178.646 143.6 180.513 147.18 182.109 150.832L180.277 151.633V151.633ZM168.064 131.668C165.596 128.647 162.895 125.766 160.038 123.106L161.402 121.642C164.325 124.365 167.087 127.312 169.613 130.402L168.064 131.668V131.668ZM34.4389 131.563L32.8754 130.316C35.3739 127.183 38.12 124.217 41.0365 121.497L42.4008 122.96C39.5551 125.613 36.8764 128.507 34.4389 131.563ZM150.926 115.708C147.73 113.456 144.354 111.407 140.891 109.615L141.81 107.839C145.354 109.672 148.809 111.769 152.078 114.073L150.926 115.708L150.926 115.708ZM51.539 115.622L50.4042 113.975C53.6713 111.725 57.1552 109.679 60.7592 107.892L61.6479 109.684C58.1283 111.428 54.7275 113.426 51.539 115.622H51.539ZM72.4906 105.201L71.851 103.306C75.5649 102.053 79.4614 101.005 83.4321 100.191L83.8334 102.15C79.9433 102.948 76.1269 103.974 72.4906 105.201V105.201ZM130.117 104.95C126.438 103.649 122.631 102.592 118.803 101.807L119.205 99.8476C123.122 100.651 127.018 101.733 130.784 103.064L130.117 104.95L130.117 104.95ZM95.4682 100.445L95.2856 98.4535C97.2875 98.2699 99.3456 98.1356 101.403 98.0546C103.349 98.0316 105.366 98.1181 107.305 98.2455L107.174 100.242C105.278 100.117 103.35 100.054 101.442 100.054C99.4589 100.133 97.4359 100.265 95.4682 100.445V100.445Z" fill="#3F3D56" />
        <g id="Group_3">
            <path id="Vector_16" d="M34.8743 267.876C49.786 267.876 61.8743 255.788 61.8743 240.876C61.8743 225.964 49.786 213.876 34.8743 213.876C19.9626 213.876 7.87431 225.964 7.87431 240.876C7.87431 255.788 19.9626 267.876 34.8743 267.876Z" fill="#6C63FF" />
            <path id="Vector_17" d="M24.3073 231.823C24.3073 230.987 25.0021 230.309 25.8593 230.309H43.8893C44.7465 230.309 45.4413 230.987 45.4413 231.823V249.929C45.4413 250.765 44.7465 251.443 43.8893 251.443H25.8593C25.0021 251.443 24.3073 250.765 24.3073 249.929V231.823ZM30.8364 248.001V238.457H27.665V248.001H30.8364ZM29.2513 237.154C30.3569 237.154 31.0451 236.422 31.0451 235.505C31.0253 234.569 30.3582 233.857 29.2725 233.857C28.1867 233.857 27.4774 234.57 27.4774 235.505C27.4774 236.422 28.1656 237.154 29.2302 237.154H29.2513H29.2513ZM35.7342 248.001V242.671C35.7342 242.386 35.7553 242.1 35.8399 241.897C36.0684 241.328 36.5901 240.737 37.4672 240.737C38.615 240.737 39.0734 241.612 39.0734 242.896V248.001H42.2448V242.527C42.2448 239.595 40.6809 238.232 38.5939 238.232C36.9111 238.232 36.1569 239.156 35.7342 239.807V239.84H35.7131L35.7342 239.807V238.457H32.5641C32.6037 239.353 32.5641 248.001 32.5641 248.001H35.7342V248.001Z" fill="white" />
        </g>
        <g id="Group 4">
            <path id="Vector_18" d="M114.607 126.515C129.518 126.515 141.607 114.427 141.607 99.5151C141.607 84.6034 129.518 72.5151 114.607 72.5151C99.695 72.5151 87.6067 84.6034 87.6067 99.5151C87.6067 114.427 99.695 126.515 114.607 126.515Z" fill="#6C63FF" />
            <path id="Vector_19" fill-rule="evenodd" clip-rule="evenodd" d="M114.951 94.6238C116.428 92.6262 118.061 91.0536 120.15 91.0536C124.092 91.0536 127.339 96.0722 127.341 102.047C127.341 105.692 125.772 107.977 122.953 107.977C120.497 107.977 119.141 106.598 116.707 102.527L115.645 100.739L115.457 100.426C115.181 99.9576 114.899 99.4923 114.614 99.0296L112.739 102.34C110.076 106.996 108.577 107.977 106.495 107.977C103.601 107.977 101.872 105.724 101.872 102.153C101.872 96.4463 105.048 91.0536 109.191 91.0536C109.699 91.0536 110.186 91.1157 110.662 91.2478C111.155 91.3847 111.634 91.5979 112.115 91.8956C113.033 92.467 113.952 93.352 114.951 94.6238H114.951ZM117.364 98.1637C116.963 97.5111 116.578 96.9111 116.207 96.3603L116.198 96.3476C117.543 94.2704 118.654 93.2374 119.973 93.2374C122.716 93.2374 124.911 97.2756 124.911 102.235C124.911 104.126 124.29 105.223 123.008 105.223C121.778 105.223 121.191 104.411 118.854 100.655L117.363 98.1637H117.364ZM109.586 93.8486C110.74 94.0078 111.79 94.8578 113.31 97.0336C112.433 98.3767 111.566 99.7259 110.708 101.081C108.548 104.465 107.801 105.225 106.6 105.225C105.363 105.225 104.626 104.139 104.626 102.2C104.626 98.0587 106.692 93.8216 109.156 93.8216C109.301 93.8216 109.444 93.8311 109.586 93.8502V93.8486V93.8486Z" fill="white" />
        </g>
        <g id="Group_4">
            <path id="Vector_20" d="M27.7197 169.223C42.6314 169.223 54.7197 157.134 54.7197 142.223C54.7197 127.311 42.6314 115.223 27.7197 115.223C12.808 115.223 0.719669 127.311 0.719669 142.223C0.719669 157.134 12.808 169.223 27.7197 169.223Z" fill="#6C63FF" />
            <path id="Vector_21" d="M23.3621 151.747C32.2091 151.747 37.0486 144.416 37.0486 138.071C37.0486 137.866 37.0486 137.657 37.0398 137.452C37.9821 136.77 38.7952 135.926 39.4413 134.959C38.5612 135.347 37.6285 135.602 36.6735 135.718C37.6795 135.116 38.4329 134.17 38.7937 133.055C37.8486 133.615 36.8142 134.008 35.7358 134.217C33.9156 132.279 30.8687 132.183 28.9302 134.003C27.6784 135.178 27.1474 136.932 27.5365 138.604C23.6688 138.41 20.0651 136.584 17.6215 133.58C16.3484 135.779 17.0011 138.588 19.113 140C18.3505 139.974 17.6046 139.77 16.9357 139.403V139.468C16.9384 141.757 18.5501 143.727 20.7922 144.184C20.3794 144.297 19.9529 144.354 19.5248 144.352C19.2229 144.353 18.9216 144.325 18.6251 144.269C19.2553 146.227 21.0616 147.568 23.1189 147.605C21.4142 148.944 19.3085 149.67 17.1409 149.666C16.7589 149.668 16.3772 149.646 15.998 149.6C18.198 151.003 20.753 151.748 23.3621 151.747H23.3621Z" fill="white" />
        </g>
        <g id="Group 3">
            <path id="Vector_22" d="M124.926 297.536C139.838 297.536 151.926 285.447 151.926 270.536C151.926 255.624 139.838 243.536 124.926 243.536C110.014 243.536 97.9259 255.624 97.9259 270.536C97.9259 285.447 110.014 297.536 124.926 297.536Z" fill="#6C63FF" />
            <path id="Vector_23" d="M124.926 259.02C121.801 259.02 121.408 259.035 120.18 259.089C118.952 259.147 118.116 259.34 117.383 259.625C116.615 259.914 115.919 260.367 115.344 260.953C114.758 261.529 114.304 262.225 114.015 262.993C113.73 263.724 113.536 264.562 113.479 265.786C113.425 267.016 113.41 267.408 113.41 270.537C113.41 273.664 113.425 274.055 113.479 275.283C113.537 276.509 113.73 277.346 114.015 278.078C114.31 278.835 114.703 279.477 115.344 280.118C115.983 280.759 116.625 281.153 117.382 281.447C118.116 281.732 118.951 281.926 120.177 281.982C121.406 282.037 121.798 282.051 124.926 282.051C128.054 282.051 128.444 282.037 129.673 281.982C130.898 281.925 131.737 281.732 132.47 281.447C133.238 281.157 133.934 280.704 134.508 280.118C135.149 279.477 135.542 278.835 135.837 278.078C136.12 277.346 136.315 276.509 136.372 275.283C136.427 274.055 136.441 273.664 136.441 270.536C136.441 267.408 136.427 267.016 136.372 265.787C136.315 264.562 136.12 263.724 135.837 262.993C135.547 262.225 135.094 261.529 134.508 260.953C133.933 260.367 133.237 259.914 132.468 259.625C131.734 259.34 130.897 259.145 129.672 259.089C128.442 259.035 128.052 259.02 124.923 259.02H124.926V259.02ZM123.894 261.096H124.927C128.002 261.096 128.366 261.106 129.58 261.162C130.702 261.212 131.313 261.401 131.719 261.558C132.255 261.767 132.64 262.017 133.043 262.42C133.446 262.823 133.695 263.206 133.904 263.744C134.062 264.149 134.249 264.759 134.299 265.882C134.356 267.095 134.367 267.46 134.367 270.533C134.367 273.606 134.356 273.972 134.299 275.185C134.249 276.308 134.061 276.917 133.904 277.323C133.719 277.823 133.424 278.275 133.041 278.645C132.638 279.048 132.255 279.298 131.717 279.506C131.314 279.665 130.704 279.852 129.58 279.904C128.366 279.958 128.002 279.971 124.927 279.971C121.853 279.971 121.487 279.958 120.274 279.904C119.151 279.852 118.542 279.665 118.136 279.506C117.636 279.322 117.183 279.028 116.812 278.645C116.429 278.274 116.133 277.822 115.948 277.321C115.791 276.917 115.603 276.306 115.552 275.184C115.498 273.97 115.486 273.606 115.486 270.53C115.486 267.455 115.498 267.093 115.552 265.879C115.604 264.756 115.791 264.146 115.95 263.74C116.158 263.203 116.409 262.819 116.812 262.416C117.215 262.013 117.598 261.764 118.136 261.555C118.542 261.397 119.151 261.21 120.274 261.158C121.336 261.109 121.748 261.094 123.894 261.093V261.096H123.894ZM131.074 263.007C130.311 263.007 129.692 263.626 129.692 264.389C129.692 265.152 130.311 265.771 131.074 265.771C131.837 265.771 132.456 265.152 132.456 264.389C132.456 263.626 131.837 263.007 131.074 263.007ZM124.927 264.622C121.661 264.572 118.972 267.178 118.921 270.444C118.87 273.71 121.477 276.399 124.743 276.45C124.804 276.451 124.866 276.451 124.927 276.45C128.193 276.399 130.8 273.71 130.749 270.444C130.699 267.25 128.122 264.672 124.927 264.622H124.927ZM124.927 266.697C127.048 266.696 128.767 268.414 128.768 270.534C128.769 272.654 127.051 274.374 124.931 274.375H124.927C122.807 274.375 121.088 272.656 121.088 270.536C121.088 268.415 122.807 266.697 124.927 266.697V266.697Z" fill="white" />
        </g>
    </g>
    <defs>
        <clipPath id="clip0_1_2">
            <rect width="478.67" height="383.237" fill="white" />
        </clipPath>
    </defs>
</svg>